<svg width="25" height="25" viewBox="0 0 25 25" fill="none" xmlns="http://www.w3.org/2000/svg">
<path fill-rule="evenodd" clip-rule="evenodd" d="M12.5 25C19.4036 25 25 19.4036 25 12.5C25 5.59644 19.4036 0 12.5 0C5.59644 0 0 5.59644 0 12.5C0 19.4036 5.59644 25 12.5 25ZM20.8271 9.86771C20.8255 9.85677 20.8229 9.84688 20.8214 9.83646C20.8177 9.81615 20.8141 9.79583 20.8089 9.77656C20.8057 9.76458 20.801 9.75312 20.7974 9.74167C20.7917 9.72396 20.7859 9.70677 20.7792 9.68958C20.7745 9.6776 20.7687 9.66562 20.763 9.65469C20.7557 9.63802 20.7479 9.6224 20.7385 9.60729C20.7323 9.59583 20.725 9.5849 20.7182 9.57396C20.7089 9.55885 20.699 9.54427 20.688 9.53021C20.6802 9.51979 20.6719 9.50937 20.6635 9.49948C20.6521 9.48594 20.6401 9.47292 20.6276 9.46042C20.6182 9.45104 20.6094 9.44115 20.5995 9.43281C20.5859 9.42083 20.5724 9.40937 20.5589 9.39844C20.5479 9.3901 20.5375 9.38177 20.5266 9.37396C20.5224 9.37135 20.5187 9.36771 20.5146 9.3651L12.8974 4.28698C12.6568 4.12656 12.3437 4.12656 12.1026 4.28698L4.48594 9.3651C4.48177 9.36771 4.47813 9.37135 4.47396 9.37396C4.4625 9.38177 4.45208 9.3901 4.44167 9.39844C4.4276 9.40937 4.41406 9.42083 4.40104 9.43281C4.39115 9.44115 4.38177 9.45104 4.3724 9.46042C4.3599 9.47292 4.34792 9.48594 4.33698 9.49948C4.32812 9.50937 4.31979 9.51979 4.31198 9.53021C4.30156 9.54427 4.29167 9.55885 4.28229 9.57396C4.275 9.5849 4.26823 9.59583 4.26146 9.60729C4.2526 9.6224 4.24479 9.63802 4.23698 9.65469C4.23177 9.66562 4.22604 9.6776 4.22135 9.68958C4.21406 9.70677 4.20833 9.72396 4.2026 9.74167C4.19896 9.75312 4.19479 9.76458 4.19167 9.77656C4.18646 9.79583 4.18281 9.81615 4.17917 9.83646C4.17708 9.84688 4.17448 9.85677 4.17344 9.86771C4.16927 9.89792 4.16667 9.92917 4.16667 9.96094V15.0391C4.16667 15.0703 4.16927 15.1016 4.17344 15.1328C4.17448 15.1427 4.17708 15.1531 4.17917 15.1635C4.18281 15.1839 4.18646 15.2036 4.19167 15.2234C4.19479 15.2354 4.19896 15.2469 4.2026 15.2583C4.20833 15.2755 4.21406 15.2932 4.22135 15.3109C4.22604 15.3224 4.23177 15.3339 4.23698 15.3453C4.24479 15.3615 4.2526 15.3771 4.26146 15.3932C4.26823 15.4042 4.275 15.4151 4.28229 15.426C4.29167 15.4411 4.30156 15.4552 4.31198 15.4693C4.31979 15.4802 4.32812 15.4906 4.33698 15.5005C4.34792 15.5135 4.3599 15.5271 4.3724 15.5391C4.38177 15.549 4.39115 15.5583 4.40104 15.5672C4.41406 15.5792 4.4276 15.5906 4.44167 15.6016C4.45208 15.6099 4.4625 15.6182 4.47396 15.626C4.47813 15.6286 4.48177 15.6323 4.48594 15.6349L12.1026 20.713C12.2229 20.7932 12.3615 20.8333 12.5 20.8333C12.6385 20.8333 12.7771 20.7932 12.8974 20.713L20.5146 15.6349C20.5187 15.6323 20.5224 15.6286 20.5266 15.626C20.5375 15.6182 20.5479 15.6099 20.5589 15.6016C20.5724 15.5906 20.5859 15.5792 20.5995 15.5672C20.6094 15.5583 20.6182 15.549 20.6276 15.5391C20.6401 15.5271 20.6521 15.5135 20.6635 15.5005C20.6719 15.4906 20.6802 15.4802 20.688 15.4693C20.699 15.4552 20.7089 15.4411 20.7182 15.426C20.725 15.4151 20.7323 15.4042 20.7385 15.3932C20.7479 15.3771 20.7557 15.3615 20.763 15.3453C20.7687 15.3339 20.7745 15.3224 20.7792 15.3109C20.7859 15.2932 20.7917 15.2755 20.7974 15.2583C20.801 15.2469 20.8057 15.2354 20.8089 15.2234C20.8141 15.2036 20.8177 15.1839 20.8214 15.1635C20.8229 15.1531 20.8255 15.1427 20.8271 15.1328C20.8312 15.1016 20.8333 15.0703 20.8333 15.0391V9.96094C20.8333 9.92917 20.8312 9.89792 20.8271 9.86771ZM13.2161 6.22135L18.8276 9.96198L16.3214 11.6385L13.2161 9.56146V6.22135ZM11.7839 6.22135V9.56146L8.67917 11.6385L6.1724 9.96198L11.7839 6.22135ZM5.59896 11.3016L7.39115 12.5L5.59896 13.6984V11.3016ZM11.7839 18.7786L6.1724 15.038L8.67917 13.362L11.7839 15.4385V18.7786ZM12.5 14.1943L9.96719 12.5L12.5 10.8057L15.0333 12.5L12.5 14.1943ZM13.2161 18.7786V15.4385L16.3214 13.362L18.8276 15.038L13.2161 18.7786ZM19.401 13.6984L17.6094 12.5L19.401 11.3016V13.6984Z" fill="#FCFCFC"/>
</svg>
