<svg width="25" height="25" viewBox="0 0 25 25" fill="none" xmlns="http://www.w3.org/2000/svg">
<path d="M12.4998 0C5.59641 0 0 5.59652 0 12.4998C0 19.4028 5.59641 25 12.4998 25C19.4032 25 25 19.403 25 12.4998C24.9998 5.59652 19.4032 0 12.4998 0ZM16.7687 7.99581C16.7687 8.11511 16.6721 8.21194 16.5525 8.21194H13.5096V9.84741H16.5523C16.6719 9.84741 16.7685 9.94424 16.7685 10.0635V13.106C16.7685 13.2256 16.6719 13.3222 16.5523 13.3222H13.7257V19.9989C13.7257 20.1184 13.6291 20.215 13.5096 20.215H10.6339C10.5144 20.215 10.4177 20.1184 10.4177 19.9989V13.3224H8.44724C8.32771 13.3224 8.2311 13.2258 8.2311 13.1062V10.0638C8.2311 9.94445 8.32771 9.84763 8.44724 9.84763H10.4177V8.61394C10.4177 8.59622 10.4199 8.57915 10.4238 8.56272C10.4255 6.80535 10.8014 4.79489 13.6805 4.78581C13.6868 4.78538 13.6935 4.78495 13.7 4.78495H16.5523C16.6719 4.78495 16.7685 4.88178 16.7685 5.00108V7.99581H16.7687Z" fill="#FCFCFC"/>
</svg>
