<svg width="25" height="25" viewBox="0 0 25 25" fill="none" xmlns="http://www.w3.org/2000/svg">
<path d="M12.4998 0C5.59641 0 0 5.59652 0 12.4998C0 19.4028 5.59641 25 12.4998 25C19.4034 25 25 19.403 25 12.4998C25 5.59652 19.4034 0 12.4998 0ZM18.6017 9.3944C18.6017 9.3944 18.8989 10.8673 17.8325 13.4549C16.7657 16.0424 14.1258 18.4901 10.4895 18.7175C6.85302 18.9446 4.8944 17.3362 4.8944 17.3362C7.62203 17.546 8.82829 16.4271 9.47518 16.0599C6.94012 15.7277 6.57291 13.8221 6.57291 13.8221C6.81757 13.9271 7.56929 13.8921 7.97152 13.7873C5.4892 13.1754 5.43668 10.6754 5.43668 10.6754C5.43668 10.6754 6.36304 11.1474 6.8876 11.0599C4.49217 9.24159 5.89121 6.86392 5.89121 6.86392C9.05566 10.3257 12.4122 10.1334 12.4122 10.1334L12.4274 10.156C12.3664 9.91225 12.3336 9.65721 12.3336 9.39461C12.3336 7.66383 13.7367 6.26091 15.4675 6.26091C16.3818 6.26091 17.2046 6.65276 17.7776 7.27738L17.7975 7.26614C18.9162 7.19612 19.7382 6.60175 19.7382 6.60175C19.3975 7.59683 18.6739 8.06043 18.3718 8.21648C18.3757 8.22577 18.3793 8.23506 18.3828 8.24414C18.7738 8.14948 19.8227 7.89293 20.1056 7.8082C19.4933 8.9269 18.6017 9.3944 18.6017 9.3944Z" fill="#FCFCFC"/>
</svg>
